<svg width="329.6125244140625px" height="118.43002929687499px" xmlns="http://www.w3.org/2000/svg" viewBox="85.19373779296876 15.784985351562504 329.6125244140625 118.43002929687499" style="background: rgb(63, 81, 181);" preserveAspectRatio="xMidYMid"><defs><filter id="editing-extrude-glow"><feFlood flood-color="none" result="flood-1"></feFlood><feMorphology operator="erode" radius="1" in="SourceAlpha" result="erode"></feMorphology><feComposite operator="in" in="flood-1" in2="erode" result="comp1"></feComposite><feConvolveMatrix order="0,0" divisor="1" in="comp1" result="convolve" kernelMatrix=""></feConvolveMatrix><feOffset dx="0" dy="0" in="convolve" result="extrude"></feOffset><feComposite operator="in" in="flood-1" in2="extrude" result="comp-extrude"></feComposite><feFlood flood-color="none" result="flood-2"></feFlood><feComposite operator="in" in="flood-2" in2="SourceAlpha" result="comp2"></feComposite><feMorphology operator="dilate" radius="1" in="comp2" result="dilate"></feMorphology><feOffset dx="0" dy="0" in="dilate" result="offset"></feOffset><feGaussianBlur in="offset" stdDeviation="5.8" result="blur"></feGaussianBlur><feComponentTransfer in="blur" result="shadow"><feFuncA type="linear" slope="0.8" intercept="-0.2"></feFuncA></feComponentTransfer><feMerge><feMergeNode in="shadow"></feMergeNode><feMergeNode in="comp-extrude"></feMergeNode><feMergeNode in="SourceGraphic"></feMergeNode></feMerge></filter></defs><g filter="url(#editing-extrude-glow)"><g transform="translate(134.375, 97.34499931335449)"><path d="M6.25-44.69L12.03-44.69L12.03 0L6.25 0L6.25-44.69ZM28.75 0L22.97 0L22.97-32.81L26.88-32.81L27.91-28.63L27.91-28.63Q32.94-32.81 38.97-32.81L38.97-32.81L38.97-32.81Q51.25-32.81 51.25-20.59L51.25-20.59L51.25 0L45.47 0L45.47-20.69L45.47-20.69Q45.47-28 38.19-28L38.19-28L38.19-28Q33.22-28 28.75-23.84L28.75-23.84L28.75 0ZM60.63-8.84L60.63-38.13L64.25-38.13L65.50-32.81L74.38-32.81L74.38-28.13L66.41-28.13L66.41-9.28L66.41-9.28Q66.41-4.69 70.38-4.69L70.38-4.69L74.38-4.69L74.38 0L68.88 0L68.88 0Q60.63 0 60.63-8.84L60.63-8.84ZM87.50 0L81.72 0L81.72-32.81L85.63-32.81L86.66-28.63L86.66-28.63Q90.97-32.81 97.03-32.81L97.03-32.81L97.03-28L97.03-28Q91.16-28 87.50-23.84L87.50-23.84L87.50 0ZM101.25-9.91L101.25-9.91L101.25-9.91Q101.25-20 114.56-20L114.56-20L114.56-20Q118.84-20 123.13-19.38L123.13-19.38L123.13-22.47L123.13-22.47Q123.13-28.13 114.28-28.13L114.28-28.13L114.28-28.13Q109.22-28.13 103.91-26.56L103.91-26.56L103.91-31.25L103.91-31.25Q109.22-32.81 114.28-32.81L114.28-32.81L114.28-32.81Q128.91-32.81 128.91-22.63L128.91-22.63L128.91 0L125.66 0L123.66-3.25L123.66-3.25Q118.75 0 112.97 0L112.97 0L112.97 0Q101.25 0 101.25-9.91ZM114.56-15.31L114.56-15.31L114.56-15.31Q107.03-15.31 107.03-10L107.03-10L107.03-10Q107.03-4.69 112.97-4.69L112.97-4.69L112.97-4.69Q118.97-4.69 123.13-7.88L123.13-7.88L123.13-14.69L123.13-14.69Q118.84-15.31 114.56-15.31ZM144.06 0L138.28 0L138.28-32.81L142.19-32.81L143.22-28.63L143.22-28.63Q148.25-32.81 154.28-32.81L154.28-32.81L154.28-32.81Q166.56-32.81 166.56-20.59L166.56-20.59L166.56 0L160.78 0L160.78-20.69L160.78-20.69Q160.78-28 153.50-28L153.50-28L153.50-28Q148.53-28 144.06-23.84L144.06-23.84L144.06 0ZM189.47-32.81L189.47-32.81L189.47-32.81Q203.47-32.81 203.47-18.97L203.47-18.97L203.47-18.97Q203.47-17 203.19-14.75L203.19-14.75L180.16-14.75L180.16-14.75Q180.16-4.69 191.91-4.69L191.91-4.69L191.91-4.69Q197.50-4.69 201.84-5.94L201.84-5.94L201.84-1.25L201.84-1.25Q197.50 0 191.28 0L191.28 0L191.28 0Q174.38 0 174.38-16.78L174.38-16.78L174.38-16.78Q174.38-32.81 189.47-32.81ZM180.16-19.56L180.16-19.56L197.91-19.56L197.91-19.56Q197.72-28.19 189.47-28.19L189.47-28.19L189.47-28.19Q180.72-28.19 180.16-19.56ZM211.25-8.84L211.25-38.13L214.88-38.13L216.13-32.81L225-32.81L225-28.13L217.03-28.13L217.03-9.28L217.03-9.28Q217.03-4.69 221-4.69L221-4.69L225-4.69L225 0L219.50 0L219.50 0Q211.25 0 211.25-8.84L211.25-8.84Z" fill="#ffffff"></path></g></g><style>text {
  font-size: 64px;
  font-family: Arial Black;
  dominant-baseline: central;
  text-anchor: middle;
}</style></svg>